<?xml version="1.0" standalone="no"?>
<!DOCTYPE svg PUBLIC "-//W3C//DTD SVG 20010904//EN"
 "http://www.w3.org/TR/2001/REC-SVG-20010904/DTD/svg10.dtd">
<svg version="1.0" xmlns="http://www.w3.org/2000/svg"
 width="778.000000pt" height="640.000000pt" viewBox="0 0 778.000000 640.000000"
 preserveAspectRatio="xMidYMid meet">

<g transform="translate(0.000000,640.000000) scale(0.100000,-0.100000)"
fill="#FFFFFF" stroke="none">
<path d="M3240 6196 l-103 -155 350 -538 c192 -296 352 -545 355 -554 7 -19
1068 -1652 1078 -1659 16 -11 590 -902 590 -916 0 -12 31 -14 207 -12 153 2
207 6 210 15 3 7 -6 18 -19 23 -14 7 -126 172 -303 446 -1037 1609 -1750 2720
-1753 2731 -6 23 -486 766 -498 770 -6 2 -57 -66 -114 -151z"/>
<path d="M2903 5670 c-51 -77 -93 -147 -93 -155 0 -8 232 -384 515 -835 283
-450 515 -824 515 -830 0 -6 17 -37 38 -68 21 -31 98 -151 171 -267 73 -115
166 -262 207 -325 41 -63 176 -278 301 -477 l228 -363 85 0 c137 0 310 12 310
22 0 10 -555 894 -580 923 -25 29 -737 1160 -742 1177 -7 28 -841 1338 -852
1338 -6 0 -53 -63 -103 -140z"/>
<path d="M2567 5115 c-54 -80 -97 -149 -97 -155 0 -9 912 -1439 1202 -1885 82
-126 156 -245 164 -263 8 -18 75 -128 149 -244 74 -115 135 -214 135 -219 0
-5 90 -9 200 -9 167 0 200 2 200 14 0 8 -8 17 -17 20 -10 4 -146 210 -302 459
-156 248 -296 470 -312 492 -16 22 -28 45 -29 51 0 6 -152 254 -338 550 -186
296 -450 718 -587 937 -137 218 -254 397 -260 397 -7 0 -55 -65 -108 -145z"/>
<path d="M2356 3762 c-148 -229 -281 -433 -296 -452 -15 -19 -460 -705 -990
-1525 -529 -820 -969 -1497 -976 -1506 -8 -8 -14 -32 -14 -52 l0 -37 178 0
c184 0 202 4 202 42 0 15 1971 3044 1990 3058 13 10 391 593 388 599 -13 30
-195 290 -203 291 -5 0 -131 -188 -279 -418z"/>
<path d="M2957 3608 c-13 -18 -62 -91 -107 -163 -46 -71 -91 -139 -101 -150
-38 -45 -2007 -3105 -2000 -3109 4 -3 96 -2 205 1 l197 6 13 31 c14 32 1946
3021 1991 3080 14 18 25 36 25 41 0 7 -172 268 -190 288 -4 5 -19 -6 -33 -25z"/>
<path d="M2362 1663 c-522 -802 -946 -1461 -943 -1464 3 -4 94 -8 201 -10 147
-3 194 -1 193 8 -2 6 358 560 799 1230 440 670 827 1259 860 1309 l58 92 -97
145 c-54 81 -103 146 -110 147 -6 0 -438 -656 -961 -1457z"/>
<path d="M3347 2028 c-115 -157 -177 -244 -177 -252 0 -10 3788 -7 3795 3 7
13 -189 309 -223 338 l-27 22 -1643 1 -1642 0 -83 -112z"/>
<path d="M3037 1577 c-11 -28 -210 -283 -228 -291 -10 -5 -19 -18 -19 -29 0
-20 4 -20 463 -14 254 4 1271 10 2260 14 1178 4 1800 10 1804 16 3 6 -12 26
-34 46 -23 20 -74 86 -114 146 -40 61 -77 113 -83 117 -6 4 -918 8 -2027 8
-1612 0 -2018 -3 -2022 -13z"/>
<path d="M2730 1051 c-17 -33 -233 -316 -247 -324 -7 -5 -11 -12 -8 -18 4 -5
997 -9 2606 -9 2304 0 2599 2 2599 15 0 8 -6 15 -12 15 -12 0 -205 282 -220
321 -7 18 -72 19 -2357 19 -2303 0 -2351 0 -2361 -19z"/>
</g>
</svg>
